<svg width="1865" height="1865" viewBox="0 0 1865 1865" fill="none" xmlns="http://www.w3.org/2000/svg">
<path d="M1407 112.8H457.8C267.704 112.8 113.6 266.904 113.6 457V1406.2C113.6 1596.3 267.704 1750.4 457.8 1750.4H1407C1597.1 1750.4 1751.2 1596.3 1751.2 1406.2V457C1751.2 266.904 1597.1 112.8 1407 112.8Z" fill="#231F20"/>
<path d="M931.6 464.8C853.3 464.8 778.7 480.7 710.8 509.4C642.9 538.1 581.8 579.6 530.5 631C479.2 682.4 437.6 743.4 408.9 811.3C380.2 879.2 364.3 953.8 364.3 1032.1C364.3 1057 365.6 1076.2 368.1 1097.8C370.6 1119.4 374.3 1140.5 379.1 1161.3C383.9 1182.1 389.9 1202.4 396.9 1222.2C403.9 1242 412.1 1261.3 421.2 1280H583.1C570.3 1262 558.9 1243.2 549.1 1223.6C539.3 1204 531 1183.8 524.3 1162.9C517.6 1142 512.6 1120.6 509.2 1098.8C505.8 1077 504.1 1054.7 504.1 1032.2C504.1 1009.7 506.9 975.5 512.3 948.2C517.7 920.9 525.8 894.2 536.4 868.6C547 843 560.1 818.4 575.7 795.2C591.2 772 609.1 750.2 629.3 730C649.5 709.8 671.3 691.9 694.5 676.4C717.7 660.9 742.3 647.8 767.9 637.1C793.5 626.4 820.1 618.4 847.5 613C874.9 607.6 903 604.8 931.5 604.8C960 604.8 976.5 606.5 998.4 610C1020.3 613.5 1041.9 618.5 1062.8 625.3C1083.7 632 1104.1 640.4 1123.7 650.3C1143.3 660.2 1162.2 671.7 1180.3 684.6L1205.2 659.7L1230.1 634.8L1255 609.9L1279.9 585C1255.9 566.2 1230.3 549.4 1203.3 534.6C1176.4 519.9 1148.1 507.2 1118.8 496.9C1089.5 486.6 1059 478.7 1027.7 473.3C996.4 467.9 964.2 465.1 931.3 465.1L931.6 464.8Z" fill="white"/>
<path d="M1379 683.4L1354.1 708.3L1329.2 733.2L1304.3 758.1L1279.4 783C1292.4 801 1303.8 819.9 1313.7 839.6C1323.6 859.2 1332 879.6 1338.7 900.5C1345.4 921.4 1350.6 943 1354 964.9C1357.4 986.8 1359.2 1009.2 1359.2 1031.8C1359.2 1054.4 1357.5 1076.6 1354.1 1098.4C1350.7 1120.2 1345.6 1141.7 1339 1162.5C1332.4 1183.3 1324 1203.6 1314.2 1223.2C1304.4 1242.8 1293 1261.6 1280.2 1279.6H1442.1C1451.2 1260.9 1459.3 1241.6 1466.4 1221.8C1473.5 1202 1479.4 1181.7 1484.2 1160.9C1489 1140.2 1492.7 1119 1495.2 1097.4C1497.7 1075.8 1499 1053.9 1499 1031.7C1499 998.8 1496.2 966.6 1490.8 935.3C1485.4 904 1477.5 873.5 1467.2 844.2C1456.9 814.9 1444.3 786.6 1429.5 759.7C1414.8 732.8 1397.9 707.2 1379.1 683.1L1379 683.4Z" fill="white"/>
<path d="M931.6 890C912 890 893.3 894 876.3 901.2C859.3 908.4 844 918.8 831.2 931.6C818.4 944.4 808 959.7 800.8 976.7C793.6 993.7 789.6 1012.4 789.6 1032C789.6 1051.6 793.6 1070.3 800.8 1087.3C808 1104.3 818.4 1119.6 831.2 1132.4C844 1145.2 859.3 1155.6 876.3 1162.8C893.3 1170 912 1174 931.6 1174C951.2 1174 969.9 1170 986.9 1162.8C1003.9 1155.6 1019.2 1145.2 1032 1132.4C1044.8 1119.6 1055.2 1104.3 1062.4 1087.3C1069.6 1070.3 1073.6 1051.6 1073.6 1032C1073.6 1012.4 1069.6 993.7 1062.4 976.7C1055.2 959.7 1044.8 944.4 1032 931.6C1019.2 918.8 1003.9 908.4 986.9 901.2C969.9 894 951.2 890 931.6 890Z" fill="white"/>
</svg>
