<svg width="1023" height="1023" viewBox="0 0 1023 1023" fill="none" xmlns="http://www.w3.org/2000/svg">
<path fill-rule="evenodd" clip-rule="evenodd" d="M811.445 811.441C802.53 820.356 793.295 828.771 783.816 836.727L688.11 740.847C590.627 643.177 432.376 643.183 334.894 740.855L239.203 836.734C229.72 828.776 220.477 820.368 211.558 811.449C202.643 802.534 194.237 793.292 186.281 783.812L282.153 688.113C379.826 590.631 379.826 432.373 282.153 334.89L186.281 239.191C194.237 229.712 202.643 220.47 211.558 211.554C220.477 202.636 229.72 194.227 239.203 186.269L334.894 282.149C432.377 379.822 590.635 379.822 688.117 282.149L783.816 186.277C793.295 194.233 802.53 202.647 811.445 211.562C820.364 220.481 828.78 229.716 836.738 239.199L740.851 334.898C643.18 432.38 643.181 590.623 740.851 688.106L836.738 783.804C828.78 793.287 820.364 802.523 811.445 811.441ZM564.436 564.432C593.664 535.199 593.665 487.804 564.436 458.572C535.204 429.34 487.809 429.342 458.576 458.572C429.343 487.805 429.335 535.207 458.568 564.44C487.801 593.67 535.204 593.664 564.436 564.432Z" fill="white"/>
<path fill-rule="evenodd" clip-rule="evenodd" d="M811.445 811.441C802.53 820.356 793.295 828.771 783.816 836.727L688.11 740.847C590.627 643.177 432.376 643.183 334.894 740.855L239.203 836.734C229.72 828.776 220.477 820.368 211.558 811.449C202.643 802.534 194.237 793.292 186.281 783.812L282.153 688.113C379.826 590.631 379.826 432.373 282.153 334.89L186.281 239.191C194.237 229.712 202.643 220.47 211.558 211.554C220.477 202.636 229.72 194.227 239.203 186.269L334.894 282.149C432.377 379.822 590.635 379.822 688.117 282.149L783.816 186.277C793.295 194.233 802.53 202.647 811.445 211.562C820.364 220.481 828.78 229.716 836.738 239.199L740.851 334.898C643.18 432.38 643.181 590.623 740.851 688.106L836.738 783.804C828.78 793.287 820.364 802.523 811.445 811.441ZM564.436 564.432C593.664 535.199 593.665 487.804 564.436 458.572C535.204 429.34 487.809 429.342 458.576 458.572C429.343 487.805 429.335 535.207 458.568 564.44C487.801 593.67 535.204 593.664 564.436 564.432Z" fill="url(#paint0_linear_166_11131)"/>
<path d="M186.27 239.206C54.3713 396.379 54.3713 626.626 186.27 783.799L124.31 845.759C-41.4308 654.176 -41.4399 368.82 124.302 177.237L186.27 239.206Z" fill="white"/>
<path d="M186.27 239.206C54.3713 396.379 54.3713 626.626 186.27 783.799L124.31 845.759C-41.4308 654.176 -41.4399 368.82 124.302 177.237L186.27 239.206Z" fill="url(#paint1_linear_166_11131)"/>
<path d="M845.763 898.698C654.18 1064.44 368.824 1064.43 177.241 898.69L239.203 836.734C396.376 968.633 626.622 968.629 783.794 836.73L845.763 898.698Z" fill="white"/>
<path d="M845.763 898.698C654.18 1064.44 368.824 1064.43 177.241 898.69L239.203 836.734C396.376 968.633 626.622 968.629 783.794 836.73L845.763 898.698Z" fill="url(#paint2_linear_166_11131)"/>
<path d="M783.803 186.266C626.63 54.3666 396.376 54.3703 239.203 186.269L177.233 124.306C368.816 -41.4354 654.18 -41.4354 845.763 124.306L783.803 186.266Z" fill="white"/>
<path d="M783.803 186.266C626.63 54.3666 396.376 54.3703 239.203 186.269L177.233 124.306C368.816 -41.4354 654.18 -41.4354 845.763 124.306L783.803 186.266Z" fill="url(#paint3_linear_166_11131)"/>
<path d="M898.694 177.237C1064.44 368.82 1064.44 654.184 898.694 845.767L836.725 783.799C968.624 626.626 968.638 396.372 836.738 239.199L898.694 177.237Z" fill="white"/>
<path d="M898.694 177.237C1064.44 368.82 1064.44 654.184 898.694 845.767L836.725 783.799C968.624 626.626 968.638 396.372 836.738 239.199L898.694 177.237Z" fill="url(#paint4_linear_166_11131)"/>
<defs>
<linearGradient id="paint0_linear_166_11131" x1="511.5" y1="0" x2="511.5" y2="1023" gradientUnits="userSpaceOnUse">
<stop stop-color="#56CCFF"/>
<stop offset="1" stop-color="#2D43B1"/>
</linearGradient>
<linearGradient id="paint1_linear_166_11131" x1="511.5" y1="0" x2="511.5" y2="1023" gradientUnits="userSpaceOnUse">
<stop stop-color="#56CCFF"/>
<stop offset="1" stop-color="#2D43B1"/>
</linearGradient>
<linearGradient id="paint2_linear_166_11131" x1="511.5" y1="0" x2="511.5" y2="1023" gradientUnits="userSpaceOnUse">
<stop stop-color="#56CCFF"/>
<stop offset="1" stop-color="#2D43B1"/>
</linearGradient>
<linearGradient id="paint3_linear_166_11131" x1="511.5" y1="0" x2="511.5" y2="1023" gradientUnits="userSpaceOnUse">
<stop stop-color="#56CCFF"/>
<stop offset="1" stop-color="#2D43B1"/>
</linearGradient>
<linearGradient id="paint4_linear_166_11131" x1="511.5" y1="0" x2="511.5" y2="1023" gradientUnits="userSpaceOnUse">
<stop stop-color="#56CCFF"/>
<stop offset="1" stop-color="#2D43B1"/>
</linearGradient>
</defs>
</svg>
