<svg width="878" height="159" viewBox="0 0 878 159" fill="none" xmlns="http://www.w3.org/2000/svg">
<path d="M237.059 125.194C227.006 125.194 218.742 122.468 212.267 117.016C205.878 111.563 202.257 103.896 201.405 94.0131H218.401C218.998 99.2951 221 103.342 224.408 106.153C227.815 108.965 232.032 110.37 237.059 110.37C241.489 110.37 245.067 109.391 247.793 107.431C250.605 105.472 252.011 102.831 252.011 99.5081C252.011 96.9523 251.159 94.865 249.455 93.2463C247.836 91.5424 245.791 90.2219 243.321 89.2848C240.935 88.2624 237.485 87.0697 232.97 85.7066C226.921 84.0027 221.979 82.2988 218.146 80.5949C214.312 78.8058 211.032 76.1648 208.306 72.6718C205.579 69.1788 204.216 64.5783 204.216 58.8703C204.216 53.929 205.537 49.5841 208.178 45.8355C210.904 42.0017 214.568 39.0199 219.168 36.89C223.854 34.7602 229.051 33.6952 234.759 33.6952C244.386 33.6952 252.181 36.1233 258.145 40.9794C264.108 45.7503 267.559 52.4381 268.496 61.0427H251.627C250.775 57.1238 248.858 54.0568 245.877 51.8417C242.895 49.6266 239.189 48.5191 234.759 48.5191C230.755 48.5191 227.56 49.4137 225.174 51.2027C222.789 52.9066 221.596 55.2069 221.596 58.1035C221.596 60.1482 222.32 61.8521 223.769 63.2152C225.302 64.5783 227.176 65.6858 229.391 66.5378C231.606 67.3897 234.801 68.4121 238.976 69.6048C245.28 71.3087 250.434 73.0552 254.439 74.8443C258.528 76.6334 262.021 79.4448 264.918 83.2785C267.899 87.0271 269.39 92.0962 269.39 98.4858C269.39 103.768 268.027 108.454 265.301 112.543C262.575 116.547 258.741 119.657 253.8 121.872C248.944 124.087 243.363 125.194 237.059 125.194Z" fill="white"/>
<path d="M295.057 125.194C288.326 125.194 282.916 123.448 278.827 119.955C274.738 116.462 272.693 111.904 272.693 106.281C272.693 99.8915 274.951 94.9928 279.466 91.585C284.066 88.092 291.223 85.8344 300.935 84.812L313.459 83.5341V82.1284C313.459 78.8058 312.351 76.1648 310.136 74.2053C307.921 72.2458 304.982 71.2661 301.318 71.2661C297.911 71.2661 295.099 72.1606 292.884 73.9497C290.754 75.7388 289.476 78.2947 289.05 81.6172H273.076C273.673 77.3575 275.206 73.4812 277.677 69.9882C280.233 66.4952 283.513 63.769 287.517 61.8095C291.606 59.7648 296.207 58.7425 301.318 58.7425C309.838 58.7425 316.696 61.0001 321.893 65.5155C327.09 69.9456 329.688 76.2074 329.688 84.3009V124.172H313.459V115.993C312.01 118.634 309.582 120.849 306.174 122.638C302.767 124.342 299.061 125.194 295.057 125.194ZM288.667 105.642C288.667 107.857 289.519 109.604 291.223 110.882C292.927 112.16 295.27 112.798 298.251 112.798C302.852 112.798 306.515 111.222 309.241 108.07C312.053 104.833 313.459 100.871 313.459 96.1855V95.1632L301.574 96.6967C297.059 97.2079 293.779 98.1876 291.734 99.6359C289.689 100.999 288.667 103.001 288.667 105.642Z" fill="white"/>
<path d="M338.03 33.6952H354.259V68.1991C356.048 65.5581 358.774 63.343 362.438 61.5539C366.186 59.6796 370.446 58.7425 375.217 58.7425C382.288 58.7425 388.039 60.9149 392.469 65.2599C396.899 69.5196 399.114 75.3554 399.114 82.7674V124.172H382.885V86.2178C382.885 82.1284 381.734 78.891 379.434 76.5056C377.219 74.1201 374.237 72.9274 370.489 72.9274C365.462 72.9274 361.501 74.9721 358.604 79.0614C355.707 83.1507 354.259 88.8588 354.259 96.1855V124.172H338.03V33.6952Z" fill="white"/>
<path d="M437.447 125.194C430.887 125.194 425.094 123.789 420.067 120.977C415.041 118.166 411.122 114.247 408.31 109.22C405.584 104.194 404.221 98.4432 404.221 91.9684C404.221 85.5788 405.627 79.8708 408.438 74.8443C411.249 69.8178 415.083 65.8988 419.939 63.0874C424.881 60.1908 430.461 58.7425 436.68 58.7425C442.899 58.7425 448.394 60.1056 453.165 62.8318C457.936 65.4729 461.599 69.1788 464.155 73.9497C466.796 78.7206 468.117 84.0453 468.117 89.9237C468.117 91.6276 467.989 93.4593 467.733 95.4188H420.323C420.919 100.616 422.751 104.62 425.818 107.431C428.885 110.243 432.718 111.648 437.319 111.648C440.897 111.648 443.879 110.882 446.264 109.348C448.65 107.815 450.226 105.727 450.993 103.086H467.094C465.902 109.731 462.664 115.099 457.382 119.188C452.1 123.192 445.455 125.194 437.447 125.194ZM450.993 83.5341C450.908 79.8708 449.544 76.9315 446.903 74.7165C444.262 72.4162 440.855 71.2661 436.68 71.2661C428.331 71.2661 423.134 75.3554 421.089 83.5341H450.993Z" fill="white"/>
<path d="M503.719 125.194C497.159 125.194 491.366 123.789 486.339 120.977C481.313 118.166 477.394 114.247 474.582 109.22C471.856 104.194 470.493 98.4432 470.493 91.9684C470.493 85.5788 471.899 79.8708 474.71 74.8443C477.521 69.8178 481.355 65.8988 486.211 63.0874C491.153 60.1908 496.733 58.7425 502.952 58.7425C509.171 58.7425 514.666 60.1056 519.437 62.8318C524.208 65.4729 527.872 69.1788 530.427 73.9497C533.068 78.7206 534.389 84.0453 534.389 89.9237C534.389 91.6276 534.261 93.4593 534.006 95.4188H486.595C487.191 100.616 489.023 104.62 492.09 107.431C495.157 110.243 498.991 111.648 503.591 111.648C507.169 111.648 510.151 110.882 512.537 109.348C514.922 107.815 516.498 105.727 517.265 103.086H533.367C532.174 109.731 528.937 115.099 523.654 119.188C518.372 123.192 511.727 125.194 503.719 125.194ZM517.265 83.5341C517.18 79.8708 515.817 76.9315 513.175 74.7165C510.534 72.4162 507.127 71.2661 502.952 71.2661C494.603 71.2661 489.406 75.3554 487.361 83.5341H517.265Z" fill="white"/>
<path d="M575.997 125.194C571.908 125.194 568.074 124.385 564.496 122.766C560.918 121.062 558.234 118.847 556.445 116.121V124.172H540.215V33.6952H556.445V67.6879C558.234 64.9617 560.918 62.7892 564.496 61.1705C568.074 59.5518 571.908 58.7425 575.997 58.7425C582.302 58.7425 587.839 60.1056 592.61 62.8318C597.381 65.5581 601.087 69.4344 603.728 74.4609C606.369 79.4022 607.69 85.238 607.69 91.9684C607.69 98.6988 606.369 104.577 603.728 109.604C601.087 114.545 597.381 118.379 592.61 121.105C587.839 123.831 582.302 125.194 575.997 125.194ZM573.825 111.265C578.936 111.265 583.111 109.476 586.348 105.898C589.671 102.32 591.332 97.6764 591.332 91.9684C591.332 86.1752 589.671 81.4895 586.348 77.9113C583.111 74.3331 578.936 72.544 573.825 72.544C568.713 72.544 564.539 74.3331 561.301 77.9113C558.064 81.4895 556.445 86.1752 556.445 91.9684C556.445 97.6764 558.064 102.32 561.301 105.898C564.539 109.476 568.713 111.265 573.825 111.265Z" fill="white"/>
<path d="M623.866 34.7176H650.063C658.242 34.7176 665.654 36.5493 672.299 40.2126C678.944 43.876 684.141 49.1155 687.89 55.9311C691.723 62.6614 693.64 70.4993 693.64 79.4448C693.64 88.3902 691.723 96.2707 687.89 103.086C684.141 109.817 678.944 115.014 672.299 118.677C665.654 122.34 658.242 124.172 650.063 124.172H623.866V34.7176ZM649.296 116.632C656.112 116.632 662.203 115.099 667.571 112.032C673.023 108.965 677.283 104.62 680.35 98.997C683.502 93.3741 685.078 86.8567 685.078 79.4448C685.078 72.0328 683.502 65.5155 680.35 59.8926C677.283 54.2698 673.023 49.9248 667.571 46.8578C662.203 43.7908 656.112 42.2573 649.296 42.2573H632.428V116.632H649.296Z" fill="white"/>
<path d="M703.586 59.7648H711.637V74.2053C713.256 69.5196 715.897 65.771 719.56 62.9596C723.309 60.1482 727.526 58.7425 732.211 58.7425C735.278 58.7425 737.834 59.2536 739.879 60.276V67.9435C736.982 66.836 734.128 66.2822 731.317 66.2822C727.483 66.2822 724.075 67.5601 721.094 70.116C718.112 72.6718 715.769 76.3778 714.065 81.2339C712.446 86.09 711.637 91.798 711.637 98.358V124.172H703.586V59.7648Z" fill="white"/>
<path d="M744.896 59.7648H753.074V124.172H744.896V59.7648ZM748.985 45.4521C747.196 45.4521 745.705 44.8983 744.512 43.7908C743.405 42.6833 742.851 41.2776 742.851 39.5737C742.851 37.8698 743.405 36.4641 744.512 35.3565C745.705 34.1638 747.196 33.5675 748.985 33.5675C750.774 33.5675 752.223 34.1638 753.33 35.3565C754.523 36.4641 755.119 37.8698 755.119 39.5737C755.119 41.2776 754.523 42.6833 753.33 43.7908C752.223 44.8983 750.774 45.4521 748.985 45.4521Z" fill="white"/>
<path d="M759.076 59.7648H767.893L788.596 114.332L809.17 59.7648H817.604L792.685 124.172H784.123L759.076 59.7648Z" fill="white"/>
<path d="M849.503 125.194C843.454 125.194 838.001 123.789 833.145 120.977C828.374 118.081 824.626 114.119 821.899 109.093C819.258 104.066 817.938 98.358 817.938 91.9684C817.938 85.5788 819.258 79.8708 821.899 74.8443C824.626 69.8178 828.332 65.8988 833.017 63.0874C837.703 60.1908 843.028 58.7425 848.991 58.7425C854.699 58.7425 859.726 60.0204 864.071 62.5762C868.501 65.0469 871.909 68.4973 874.294 72.9274C876.765 77.3575 878 82.3414 878 87.8791C878 88.731 877.915 90.0941 877.745 91.9684H826.117C826.117 97.0801 827.054 101.638 828.928 105.642C830.888 109.561 833.614 112.628 837.107 114.843C840.6 116.973 844.646 118.038 849.247 118.038C854.529 118.038 858.874 116.803 862.282 114.332C865.69 111.776 867.947 108.326 869.055 103.981H877.106C875.998 110.2 872.931 115.312 867.905 119.316C862.878 123.235 856.744 125.194 849.503 125.194ZM869.566 85.3232C869.651 79.53 867.777 74.8443 863.943 71.2661C860.109 67.6879 855.125 65.8988 848.991 65.8988C843.113 65.8988 838.214 67.6027 834.295 71.0105C830.376 74.4183 827.863 79.1892 826.756 85.3232H869.566Z" fill="white"/>
<path fill-rule="evenodd" clip-rule="evenodd" d="M125.87 125.869C124.487 127.252 123.055 128.558 121.584 129.792L106.738 114.919C91.6171 99.7686 67.0694 99.7695 51.9482 114.92L37.1048 129.793C35.6338 128.558 34.2 127.254 32.8166 125.871C31.4337 124.488 30.1297 123.054 28.8956 121.584L43.7671 106.739C58.918 91.6177 58.918 67.0689 43.7671 51.9476L28.8956 37.103C30.1296 35.6325 31.4337 34.1989 32.8166 32.816C34.2 31.4325 35.6338 30.1282 37.1048 28.8938L51.9482 43.7665C67.0695 58.9173 91.6183 58.9173 106.74 43.7665L121.584 28.895C123.055 30.129 124.487 31.4343 125.87 32.8172C127.253 34.2006 128.559 35.6332 129.793 37.1042L114.92 51.9488C99.769 67.07 99.7692 91.6165 114.92 106.738L129.793 121.582C128.559 123.053 127.253 124.486 125.87 125.869ZM87.5543 87.5537C92.0882 83.0192 92.0883 75.6673 87.5543 71.1329C83.0199 66.5985 75.6681 66.5988 71.1335 71.1329C66.5989 75.6675 66.5977 83.0204 71.1323 87.5549C75.6669 92.0891 83.0199 92.0881 87.5543 87.5537Z" fill="white"/>
<path fill-rule="evenodd" clip-rule="evenodd" d="M125.87 125.869C124.487 127.252 123.055 128.558 121.584 129.792L106.738 114.919C91.6171 99.7686 67.0694 99.7695 51.9482 114.92L37.1048 129.793C35.6338 128.558 34.2 127.254 32.8166 125.871C31.4337 124.488 30.1297 123.054 28.8956 121.584L43.7671 106.739C58.918 91.6177 58.918 67.0689 43.7671 51.9476L28.8956 37.103C30.1296 35.6325 31.4337 34.1989 32.8166 32.816C34.2 31.4325 35.6338 30.1282 37.1048 28.8938L51.9482 43.7665C67.0695 58.9173 91.6183 58.9173 106.74 43.7665L121.584 28.895C123.055 30.129 124.487 31.4343 125.87 32.8172C127.253 34.2006 128.559 35.6332 129.793 37.1042L114.92 51.9488C99.769 67.07 99.7692 91.6165 114.92 106.738L129.793 121.582C128.559 123.053 127.253 124.486 125.87 125.869ZM87.5543 87.5537C92.0882 83.0192 92.0883 75.6673 87.5543 71.1329C83.0199 66.5985 75.6681 66.5988 71.1335 71.1329C66.5989 75.6675 66.5977 83.0204 71.1323 87.5549C75.6669 92.0891 83.0199 92.0881 87.5543 87.5537Z" fill="url(#paint0_linear_166_11137)"/>
<path d="M28.8939 37.1052C8.43398 61.4856 8.43398 97.2012 28.8939 121.582L19.2828 131.193C-6.42668 101.475 -6.42808 57.2108 19.2815 27.4928L28.8939 37.1052Z" fill="white"/>
<path d="M28.8939 37.1052C8.43398 61.4856 8.43398 97.2012 28.8939 121.582L19.2828 131.193C-6.42668 101.475 -6.42808 57.2108 19.2815 27.4928L28.8939 37.1052Z" fill="url(#paint1_linear_166_11137)"/>
<path d="M131.193 139.405C101.475 165.114 57.2114 165.113 27.4934 139.403L37.1048 129.793C61.4852 150.253 97.2005 150.252 121.581 129.792L131.193 139.405Z" fill="white"/>
<path d="M131.193 139.405C101.475 165.114 57.2114 165.113 27.4934 139.403L37.1048 129.793C61.4852 150.253 97.2005 150.252 121.581 129.792L131.193 139.405Z" fill="url(#paint2_linear_166_11137)"/>
<path d="M121.582 28.8933C97.2018 8.43325 61.4852 8.43382 37.1048 28.8938L27.4921 19.2822C57.2101 -6.4274 101.475 -6.4274 131.193 19.2822L121.582 28.8933Z" fill="white"/>
<path d="M121.582 28.8933C97.2018 8.43325 61.4852 8.43382 37.1048 28.8938L27.4921 19.2822C57.2101 -6.4274 101.475 -6.4274 131.193 19.2822L121.582 28.8933Z" fill="url(#paint3_linear_166_11137)"/>
<path d="M139.404 27.4928C165.113 57.2108 165.113 101.476 139.404 131.194L129.791 121.582C150.251 97.2012 150.253 61.4846 129.793 37.1042L139.404 27.4928Z" fill="white"/>
<path d="M139.404 27.4928C165.113 57.2108 165.113 101.476 139.404 131.194L129.791 121.582C150.251 97.2012 150.253 61.4846 129.793 37.1042L139.404 27.4928Z" fill="url(#paint4_linear_166_11137)"/>
<defs>
<linearGradient id="paint0_linear_166_11137" x1="79.343" y1="0" x2="79.343" y2="158.686" gradientUnits="userSpaceOnUse">
<stop stop-color="#56CCFF"/>
<stop offset="1" stop-color="#2D43B1"/>
</linearGradient>
<linearGradient id="paint1_linear_166_11137" x1="79.343" y1="0" x2="79.343" y2="158.686" gradientUnits="userSpaceOnUse">
<stop stop-color="#56CCFF"/>
<stop offset="1" stop-color="#2D43B1"/>
</linearGradient>
<linearGradient id="paint2_linear_166_11137" x1="79.343" y1="0" x2="79.343" y2="158.686" gradientUnits="userSpaceOnUse">
<stop stop-color="#56CCFF"/>
<stop offset="1" stop-color="#2D43B1"/>
</linearGradient>
<linearGradient id="paint3_linear_166_11137" x1="79.343" y1="0" x2="79.343" y2="158.686" gradientUnits="userSpaceOnUse">
<stop stop-color="#56CCFF"/>
<stop offset="1" stop-color="#2D43B1"/>
</linearGradient>
<linearGradient id="paint4_linear_166_11137" x1="79.343" y1="0" x2="79.343" y2="158.686" gradientUnits="userSpaceOnUse">
<stop stop-color="#56CCFF"/>
<stop offset="1" stop-color="#2D43B1"/>
</linearGradient>
</defs>
</svg>
