<svg width="713" height="487" viewBox="0 0 713 487" fill="none" xmlns="http://www.w3.org/2000/svg">

<path d="M216.181 269.863C210.491 269.863 205.813 268.32 202.148 265.234C198.532 262.147 196.482 257.807 196 252.214H205.62C205.958 255.203 207.091 257.494 209.02 259.085C210.949 260.677 213.336 261.472 216.181 261.472C218.689 261.472 220.714 260.918 222.257 259.809C223.848 258.7 224.644 257.205 224.644 255.324C224.644 253.877 224.162 252.696 223.197 251.78C222.281 250.815 221.124 250.068 219.725 249.537C218.375 248.959 216.422 248.284 213.866 247.512C210.443 246.548 207.646 245.583 205.476 244.619C203.306 243.606 201.449 242.111 199.906 240.134C198.363 238.157 197.591 235.553 197.591 232.322C197.591 229.525 198.339 227.066 199.834 224.944C201.377 222.774 203.45 221.086 206.054 219.881C208.707 218.675 211.648 218.072 214.879 218.072C220.328 218.072 224.74 219.447 228.116 222.195C231.492 224.896 233.445 228.681 233.975 233.552H224.427C223.945 231.333 222.86 229.597 221.172 228.344C219.484 227.09 217.387 226.463 214.879 226.463C212.613 226.463 210.804 226.969 209.454 227.982C208.104 228.946 207.429 230.248 207.429 231.888C207.429 233.045 207.839 234.01 208.658 234.781C209.526 235.553 210.587 236.18 211.841 236.662C213.095 237.144 214.903 237.723 217.266 238.398C220.834 239.362 223.752 240.351 226.018 241.364C228.333 242.376 230.31 243.968 231.95 246.138C233.637 248.259 234.481 251.129 234.481 254.745C234.481 257.735 233.71 260.387 232.167 262.702C230.624 264.968 228.454 266.729 225.657 267.982C222.908 269.236 219.749 269.863 216.181 269.863Z" fill="white"/>
<path d="M249.009 269.863C245.199 269.863 242.137 268.874 239.823 266.897C237.508 264.92 236.351 262.34 236.351 259.158C236.351 255.541 237.629 252.768 240.184 250.839C242.788 248.862 246.839 247.584 252.336 247.006L259.425 246.282V245.487C259.425 243.606 258.798 242.111 257.544 241.002C256.291 239.893 254.627 239.338 252.553 239.338C250.624 239.338 249.033 239.845 247.779 240.857C246.574 241.87 245.85 243.317 245.609 245.197H236.568C236.905 242.786 237.773 240.592 239.172 238.615C240.618 236.638 242.475 235.095 244.741 233.986C247.056 232.828 249.66 232.25 252.553 232.25C257.376 232.25 261.257 233.528 264.199 236.083C267.141 238.591 268.611 242.135 268.611 246.716V269.284H259.425V264.655C258.605 266.15 257.231 267.404 255.302 268.416C253.373 269.381 251.275 269.863 249.009 269.863ZM245.392 258.796C245.392 260.05 245.875 261.038 246.839 261.762C247.803 262.485 249.13 262.847 250.817 262.847C253.421 262.847 255.495 261.955 257.038 260.17C258.629 258.338 259.425 256.096 259.425 253.443V252.865L252.698 253.733C250.142 254.022 248.286 254.577 247.128 255.396C245.971 256.168 245.392 257.301 245.392 258.796Z" fill="white"/>
<path d="M273.333 218.072H282.519V237.602C283.532 236.107 285.075 234.854 287.148 233.841C289.27 232.78 291.681 232.25 294.382 232.25C298.384 232.25 301.639 233.479 304.147 235.939C306.654 238.35 307.908 241.653 307.908 245.848V269.284H298.722V247.801C298.722 245.487 298.071 243.654 296.769 242.304C295.515 240.954 293.827 240.279 291.705 240.279C288.86 240.279 286.618 241.436 284.978 243.751C283.339 246.065 282.519 249.296 282.519 253.443V269.284H273.333V218.072Z" fill="white"/>
<path d="M329.605 269.863C325.892 269.863 322.613 269.067 319.768 267.476C316.923 265.885 314.705 263.666 313.113 260.821C311.57 257.976 310.799 254.721 310.799 251.056C310.799 247.44 311.594 244.209 313.186 241.364C314.777 238.519 316.947 236.3 319.696 234.709C322.493 233.069 325.651 232.25 329.171 232.25C332.692 232.25 335.802 233.021 338.502 234.564C341.203 236.059 343.276 238.157 344.723 240.857C346.218 243.558 346.965 246.572 346.965 249.899C346.965 250.863 346.893 251.9 346.748 253.009H319.913C320.25 255.951 321.287 258.217 323.023 259.809C324.759 261.4 326.929 262.196 329.533 262.196C331.558 262.196 333.246 261.762 334.596 260.894C335.947 260.026 336.839 258.844 337.273 257.349H346.387C345.712 261.111 343.879 264.149 340.889 266.463C337.9 268.73 334.138 269.863 329.605 269.863ZM337.273 246.282C337.224 244.209 336.453 242.545 334.958 241.291C333.463 239.989 331.534 239.338 329.171 239.338C324.446 239.338 321.504 241.653 320.347 246.282H337.273Z" fill="white"/>
<path d="M367.117 269.863C363.404 269.863 360.125 269.067 357.28 267.476C354.434 265.885 352.216 263.666 350.625 260.821C349.082 257.976 348.31 254.721 348.31 251.056C348.31 247.44 349.106 244.209 350.697 241.364C352.289 238.519 354.459 236.3 357.207 234.709C360.004 233.069 363.163 232.25 366.683 232.25C370.203 232.25 373.314 233.021 376.014 234.564C378.714 236.059 380.788 238.157 382.235 240.857C383.729 243.558 384.477 246.572 384.477 249.899C384.477 250.863 384.405 251.9 384.26 253.009H357.424C357.762 255.951 358.799 258.217 360.535 259.809C362.271 261.4 364.441 262.196 367.045 262.196C369.07 262.196 370.758 261.762 372.108 260.894C373.458 260.026 374.35 258.844 374.784 257.349H383.898C383.223 261.111 381.391 264.149 378.401 266.463C375.411 268.73 371.65 269.863 367.117 269.863ZM374.784 246.282C374.736 244.209 373.964 242.545 372.47 241.291C370.975 239.989 369.046 239.338 366.683 239.338C361.957 239.338 359.016 241.653 357.858 246.282H374.784Z" fill="white"/>
<path d="M408.028 269.863C405.714 269.863 403.544 269.405 401.518 268.489C399.493 267.524 397.974 266.27 396.961 264.727V269.284H387.775V218.072H396.961V237.313C397.974 235.77 399.493 234.54 401.518 233.624C403.544 232.708 405.714 232.25 408.028 232.25C411.597 232.25 414.731 233.021 417.432 234.564C420.132 236.107 422.23 238.302 423.725 241.147C425.219 243.944 425.967 247.247 425.967 251.056C425.967 254.866 425.219 258.193 423.725 261.038C422.23 263.835 420.132 266.005 417.432 267.548C414.731 269.091 411.597 269.863 408.028 269.863ZM406.799 261.979C409.692 261.979 412.055 260.966 413.887 258.941C415.768 256.915 416.708 254.287 416.708 251.056C416.708 247.777 415.768 245.125 413.887 243.1C412.055 241.074 409.692 240.062 406.799 240.062C403.905 240.062 401.542 241.074 399.71 243.1C397.877 245.125 396.961 247.777 396.961 251.056C396.961 254.287 397.877 256.915 399.71 258.941C401.542 260.966 403.905 261.979 406.799 261.979Z" fill="white"/>
<path d="M435.123 218.651H449.951C454.581 218.651 458.776 219.688 462.537 221.761C466.299 223.835 469.24 226.801 471.362 230.658C473.532 234.468 474.617 238.904 474.617 243.968C474.617 249.031 473.532 253.492 471.362 257.349C469.24 261.159 466.299 264.1 462.537 266.174C458.776 268.248 454.581 269.284 449.951 269.284H435.123V218.651ZM449.517 265.017C453.375 265.017 456.823 264.149 459.861 262.413C462.947 260.677 465.358 258.217 467.094 255.035C468.879 251.852 469.771 248.163 469.771 243.968C469.771 239.772 468.879 236.083 467.094 232.901C465.358 229.718 462.947 227.259 459.861 225.523C456.823 223.787 453.375 222.919 449.517 222.919H439.969V265.017H449.517Z" fill="white"/>
<path d="M480.247 232.828H484.804V241.002C485.72 238.35 487.215 236.228 489.288 234.637C491.41 233.045 493.797 232.25 496.449 232.25C498.185 232.25 499.632 232.539 500.789 233.118V237.458C499.15 236.831 497.534 236.517 495.943 236.517C493.773 236.517 491.844 237.241 490.156 238.687C488.468 240.134 487.142 242.232 486.178 244.98C485.262 247.729 484.804 250.96 484.804 254.673V269.284H480.247V232.828Z" fill="white"/>
<path d="M503.629 232.828H508.258V269.284H503.629V232.828ZM505.944 224.727C504.931 224.727 504.087 224.414 503.412 223.787C502.785 223.16 502.472 222.364 502.472 221.4C502.472 220.435 502.785 219.64 503.412 219.013C504.087 218.338 504.931 218 505.944 218C506.956 218 507.776 218.338 508.403 219.013C509.078 219.64 509.416 220.435 509.416 221.4C509.416 222.364 509.078 223.16 508.403 223.787C507.776 224.414 506.956 224.727 505.944 224.727Z" fill="white"/>
<path d="M511.655 232.828H516.646L528.364 263.715L540.01 232.828H544.784L530.679 269.284H525.832L511.655 232.828Z" fill="white"/>
<path d="M562.839 269.863C559.415 269.863 556.329 269.067 553.58 267.476C550.88 265.836 548.758 263.594 547.215 260.749C545.72 257.904 544.972 254.673 544.972 251.056C544.972 247.44 545.72 244.209 547.215 241.364C548.758 238.519 550.856 236.3 553.508 234.709C556.16 233.069 559.174 232.25 562.549 232.25C565.78 232.25 568.625 232.973 571.085 234.42C573.592 235.818 575.521 237.771 576.871 240.279C578.27 242.786 578.969 245.607 578.969 248.742C578.969 249.224 578.921 249.995 578.824 251.056H549.602C549.602 253.95 550.132 256.53 551.193 258.796C552.302 261.014 553.845 262.75 555.822 264.004C557.8 265.21 560.09 265.812 562.694 265.812C565.684 265.812 568.143 265.113 570.072 263.715C572.001 262.268 573.279 260.315 573.906 257.856H578.463C577.836 261.376 576.1 264.269 573.255 266.536C570.41 268.754 566.938 269.863 562.839 269.863ZM574.195 247.295C574.243 244.016 573.182 241.364 571.012 239.338C568.842 237.313 566.021 236.3 562.549 236.3C559.222 236.3 556.449 237.265 554.231 239.194C552.013 241.123 550.59 243.823 549.963 247.295H574.195Z" fill="white"/>
<path fill-rule="evenodd" clip-rule="evenodd" d="M153.245 270.245C152.463 271.028 151.652 271.767 150.82 272.465L142.416 264.047C133.857 255.471 119.963 255.472 111.404 264.048L103.002 272.466C102.17 271.767 101.358 271.029 100.575 270.246C99.7922 269.463 99.0541 268.652 98.3556 267.819L106.773 259.417C115.349 250.858 115.349 236.963 106.773 228.404L98.3556 220.001C99.0541 219.169 99.7922 218.357 100.575 217.575C101.358 216.792 102.17 216.053 103.002 215.355L111.404 223.773C119.963 232.349 133.858 232.349 142.417 223.773L150.82 215.355C151.652 216.054 152.463 216.793 153.245 217.575C154.028 218.358 154.767 219.169 155.466 220.002L147.047 228.404C138.472 236.963 138.472 250.857 147.047 259.416L155.466 267.819C154.767 268.651 154.028 269.462 153.245 270.245ZM131.558 248.558C134.124 245.991 134.124 241.83 131.558 239.263C128.991 236.696 124.83 236.697 122.263 239.263C119.697 241.83 119.696 245.992 122.263 248.558C124.829 251.125 128.991 251.124 131.558 248.558Z" fill="white"/>
<path d="M98.3546 220.002C86.7738 233.802 86.7738 254.018 98.3546 267.818L92.9145 273.258C78.3623 256.437 78.3616 231.383 92.9138 214.562L98.3546 220.002Z" fill="white"/>
<path d="M156.259 277.906C139.437 292.459 114.383 292.458 97.5619 277.906L103.002 272.466C116.802 284.047 137.018 284.046 150.818 272.465L156.259 277.906Z" fill="white"/>
<path d="M150.818 215.354C137.019 203.773 116.802 203.774 103.002 215.355L97.5612 209.914C114.382 195.362 139.437 195.362 156.259 209.914L150.818 215.354Z" fill="white"/>
<path d="M160.906 214.562C175.458 231.383 175.458 256.438 160.906 273.259L155.465 267.818C167.046 254.018 167.047 233.802 155.466 220.002L160.906 214.562Z" fill="white"/>
</svg>
