<svg width="497" height="90" viewBox="0 0 497 90" fill="none" xmlns="http://www.w3.org/2000/svg">
<path d="M134.189 70.8674C128.499 70.8674 123.821 69.3242 120.156 66.2378C116.539 63.1514 114.489 58.8111 114.007 53.217H123.628C123.966 56.2069 125.099 58.4976 127.028 60.0891C128.957 61.6805 131.344 62.4762 134.189 62.4762C136.697 62.4762 138.723 61.9216 140.266 60.8124C141.857 59.7033 142.653 58.2083 142.653 56.3275C142.653 54.8807 142.171 53.6992 141.206 52.783C140.29 51.8184 139.132 51.071 137.734 50.5405C136.384 49.9618 134.43 49.2866 131.875 48.515C128.451 47.5505 125.653 46.586 123.483 45.6215C121.313 44.6088 119.457 43.1138 117.913 41.1366C116.37 39.1593 115.599 36.5552 115.599 33.3241C115.599 30.527 116.346 28.0675 117.841 25.9456C119.384 23.7755 121.458 22.0876 124.062 20.882C126.714 19.6763 129.656 19.0735 132.887 19.0735C138.337 19.0735 142.749 20.4479 146.125 23.1968C149.501 25.8974 151.454 29.6831 151.984 34.5538H142.436C141.954 32.3355 140.869 30.5993 139.181 29.3455C137.493 28.0916 135.395 27.4647 132.887 27.4647C130.621 27.4647 128.812 27.9711 127.462 28.9838C126.112 29.9483 125.436 31.2504 125.436 32.89C125.436 34.0475 125.846 35.012 126.666 35.7836C127.534 36.5552 128.595 37.1821 129.849 37.6643C131.103 38.1466 132.911 38.7253 135.274 39.4005C138.843 40.365 141.761 41.3536 144.027 42.3663C146.342 43.379 148.319 44.9705 149.959 47.1406C151.647 49.2625 152.491 52.1319 152.491 55.7488C152.491 58.7388 151.719 61.3912 150.176 63.706C148.633 65.9725 146.463 67.7328 143.666 68.9866C140.917 70.2405 137.758 70.8674 134.189 70.8674Z" fill="white"/>
<path d="M167.019 70.8674C163.21 70.8674 160.147 69.8788 157.833 67.9016C155.518 65.9243 154.36 63.3443 154.36 60.1614C154.36 56.5445 155.638 53.7716 158.194 51.8426C160.798 49.8653 164.849 48.5874 170.347 48.0087L177.436 47.2853V46.4896C177.436 44.6088 176.809 43.1138 175.555 42.0046C174.301 40.8954 172.638 40.3408 170.564 40.3408C168.635 40.3408 167.044 40.8472 165.79 41.8599C164.584 42.8727 163.861 44.3194 163.62 46.2002H154.577C154.915 43.7889 155.783 41.5947 157.181 39.6175C158.628 37.6402 160.485 36.097 162.751 34.9878C165.066 33.8304 167.67 33.2517 170.564 33.2517C175.386 33.2517 179.269 34.5297 182.21 37.0856C185.152 39.5934 186.623 43.1379 186.623 47.7193V70.2887H177.436V65.6591C176.616 67.1541 175.242 68.4079 173.313 69.4207C171.384 70.3852 169.286 70.8674 167.019 70.8674ZM163.403 59.7997C163.403 61.0536 163.885 62.0422 164.849 62.7656C165.814 63.489 167.14 63.8506 168.828 63.8506C171.432 63.8506 173.506 62.9585 175.049 61.1741C176.64 59.3416 177.436 57.0991 177.436 54.4467V53.868L170.709 54.7361C168.153 55.0254 166.296 55.58 165.139 56.3998C163.981 57.1714 163.403 58.3047 163.403 59.7997Z" fill="white"/>
<path d="M191.345 19.0735H200.532V38.6047C201.544 37.1098 203.088 35.8559 205.161 34.8432C207.283 33.7822 209.694 33.2517 212.395 33.2517C216.398 33.2517 219.653 34.4815 222.161 36.941C224.668 39.3522 225.922 42.6557 225.922 46.8512V70.2887H216.735V48.8044C216.735 46.4896 216.084 44.657 214.782 43.3067C213.528 41.9564 211.84 41.2812 209.719 41.2812C206.873 41.2812 204.631 42.4386 202.991 44.7535C201.351 47.0683 200.532 50.2994 200.532 54.4467V70.2887H191.345V19.0735Z" fill="white"/>
<path d="M247.621 70.8674C243.907 70.8674 240.628 70.0717 237.783 68.4803C234.937 66.8888 232.719 64.6705 231.128 61.8252C229.584 58.9799 228.813 55.7247 228.813 52.0596C228.813 48.4427 229.609 45.2116 231.2 42.3663C232.791 39.521 234.962 37.3027 237.71 35.7112C240.507 34.0716 243.666 33.2517 247.187 33.2517C250.707 33.2517 253.818 34.0233 256.518 35.5665C259.219 37.0615 261.293 39.1593 262.739 41.8599C264.234 44.5606 264.982 47.5746 264.982 50.9022C264.982 51.8667 264.909 52.9035 264.765 54.0127H237.927C238.265 56.9544 239.302 59.221 241.038 60.8124C242.774 62.4039 244.944 63.1996 247.548 63.1996C249.574 63.1996 251.262 62.7656 252.612 61.8975C253.962 61.0295 254.854 59.8479 255.289 58.353H264.403C263.728 62.1145 261.895 65.1527 258.905 67.4675C255.915 69.7341 252.154 70.8674 247.621 70.8674ZM255.289 47.2853C255.24 45.2116 254.469 43.5478 252.974 42.294C251.479 40.9919 249.55 40.3408 247.187 40.3408C242.461 40.3408 239.519 42.6557 238.361 47.2853H255.289Z" fill="white"/>
<path d="M285.135 70.8674C281.421 70.8674 278.142 70.0717 275.297 68.4803C272.451 66.8888 270.233 64.6705 268.642 61.8252C267.098 58.9799 266.327 55.7247 266.327 52.0596C266.327 48.4427 267.123 45.2116 268.714 42.3663C270.305 39.521 272.476 37.3027 275.224 35.7112C278.021 34.0716 281.18 33.2517 284.701 33.2517C288.221 33.2517 291.332 34.0233 294.032 35.5665C296.733 37.0615 298.807 39.1593 300.253 41.8599C301.748 44.5606 302.496 47.5746 302.496 50.9022C302.496 51.8667 302.423 52.9035 302.279 54.0127H275.441C275.779 56.9544 276.816 59.221 278.552 60.8124C280.288 62.4039 282.458 63.1996 285.062 63.1996C287.088 63.1996 288.776 62.7656 290.126 61.8975C291.476 61.0295 292.368 59.8479 292.802 58.353H301.917C301.242 62.1145 299.409 65.1527 296.419 67.4675C293.429 69.7341 289.668 70.8674 285.135 70.8674ZM292.802 47.2853C292.754 45.2116 291.983 43.5478 290.488 42.294C288.993 40.9919 287.064 40.3408 284.701 40.3408C279.975 40.3408 277.033 42.6557 275.875 47.2853H292.802Z" fill="white"/>
<path d="M326.048 70.8674C323.734 70.8674 321.564 70.4093 319.538 69.493C317.513 68.5285 315.994 67.2746 314.981 65.7314V70.2887H305.794V19.0735H314.981V38.3154C315.994 36.7722 317.513 35.5424 319.538 34.6262C321.564 33.7099 323.734 33.2517 326.048 33.2517C329.617 33.2517 332.752 34.0233 335.452 35.5665C338.153 37.1098 340.251 39.304 341.746 42.1493C343.241 44.9464 343.988 48.2498 343.988 52.0596C343.988 55.8694 343.241 59.1969 341.746 62.0422C340.251 64.8393 338.153 67.0094 335.452 68.5526C332.752 70.0958 329.617 70.8674 326.048 70.8674ZM324.819 62.9826C327.712 62.9826 330.075 61.9699 331.908 59.9444C333.789 57.9189 334.729 55.2907 334.729 52.0596C334.729 48.7803 333.789 46.1279 331.908 44.1024C330.075 42.077 327.712 41.0642 324.819 41.0642C321.925 41.0642 319.562 42.077 317.73 44.1024C315.897 46.1279 314.981 48.7803 314.981 52.0596C314.981 55.2907 315.897 57.9189 317.73 59.9444C319.562 61.9699 321.925 62.9826 324.819 62.9826Z" fill="white"/>
<path d="M353.145 19.6522H367.974C372.604 19.6522 376.799 20.6891 380.561 22.7628C384.323 24.8364 387.264 27.8023 389.386 31.6603C391.556 35.4701 392.641 39.9068 392.641 44.9705C392.641 50.0341 391.556 54.4949 389.386 58.353C387.264 62.1628 384.323 65.1045 380.561 67.1782C376.799 69.2519 372.604 70.2887 367.974 70.2887H353.145V19.6522ZM367.54 66.0208C371.398 66.0208 374.846 65.1527 377.884 63.4166C380.971 61.6805 383.382 59.221 385.118 56.0382C386.903 52.8553 387.795 49.1661 387.795 44.9705C387.795 40.7749 386.903 37.0856 385.118 33.9028C383.382 30.7199 380.971 28.2604 377.884 26.5243C374.846 24.7882 371.398 23.9202 367.54 23.9202H357.992V66.0208H367.54Z" fill="white"/>
<path d="M398.271 33.8304H402.829V42.0046C403.745 39.3522 405.24 37.2303 407.314 35.6389C409.435 34.0475 411.823 33.2517 414.475 33.2517C416.211 33.2517 417.658 33.5411 418.815 34.1198V38.4601C417.176 37.8331 415.56 37.5197 413.969 37.5197C411.798 37.5197 409.869 38.243 408.182 39.6898C406.494 41.1366 405.168 43.2344 404.203 45.9832C403.287 48.732 402.829 51.9631 402.829 55.6765V70.2887H398.271V33.8304Z" fill="white"/>
<path d="M421.655 33.8304H426.285V70.2887H421.655V33.8304ZM423.97 25.7286C422.957 25.7286 422.113 25.4151 421.438 24.7882C420.811 24.1613 420.498 23.3656 420.498 22.4011C420.498 21.4366 420.811 20.6408 421.438 20.0139C422.113 19.3388 422.957 19.0012 423.97 19.0012C424.983 19.0012 425.802 19.3388 426.429 20.0139C427.105 20.6408 427.442 21.4366 427.442 22.4011C427.442 23.3656 427.105 24.1613 426.429 24.7882C425.802 25.4151 424.983 25.7286 423.97 25.7286Z" fill="white"/>
<path d="M429.682 33.8304H434.673L446.392 64.7187L458.038 33.8304H462.812L448.707 70.2887H443.86L429.682 33.8304Z" fill="white"/>
<path d="M480.869 70.8674C477.445 70.8674 474.358 70.0717 471.609 68.4803C468.909 66.8406 466.787 64.5981 465.244 61.7528C463.749 58.9076 463.001 55.6765 463.001 52.0596C463.001 48.4427 463.749 45.2116 465.244 42.3663C466.787 39.521 468.885 37.3027 471.537 35.7112C474.19 34.0716 477.204 33.2517 480.579 33.2517C483.81 33.2517 486.656 33.9751 489.115 35.4219C491.623 36.8204 493.552 38.7735 494.902 41.2812C496.301 43.7889 497 46.6101 497 49.7448C497 50.227 496.952 50.9986 496.855 52.0596H467.631C467.631 54.9531 468.161 57.5331 469.222 59.7997C470.331 62.0181 471.875 63.7542 473.852 65.008C475.829 66.2137 478.12 66.8165 480.724 66.8165C483.714 66.8165 486.173 66.1172 488.102 64.7187C490.031 63.2719 491.309 61.3188 491.936 58.8593H496.494C495.867 62.3798 494.131 65.2733 491.285 67.5399C488.44 69.7582 484.968 70.8674 480.869 70.8674ZM492.226 48.298C492.274 45.0187 491.213 42.3663 489.043 40.3408C486.873 38.3154 484.052 37.3027 480.579 37.3027C477.252 37.3027 474.479 38.2672 472.26 40.1962C470.042 42.1252 468.619 44.8258 467.993 48.298H492.226Z" fill="white"/>
<path fill-rule="evenodd" clip-rule="evenodd" d="M71.2499 71.2495C70.4671 72.0323 69.6562 72.7712 68.8239 73.4697L60.4203 65.0509C51.8607 56.4749 37.9652 56.4755 29.4058 65.0516L21.0035 73.4704C20.1708 72.7716 19.3592 72.0333 18.5761 71.2502C17.7933 70.4674 17.0552 69.6559 16.3566 68.8235L24.7747 60.4206C33.3511 51.861 33.3511 37.965 24.7747 29.4054L16.3566 21.0025C17.0552 20.1701 17.7933 19.3586 18.5761 18.5758C19.3593 17.7927 20.1708 17.0544 21.0035 16.3556L29.4058 24.7744C37.9653 33.3507 51.8614 33.3507 60.4209 24.7744L68.8239 16.3563C69.6562 17.0548 70.4671 17.7937 71.2499 18.5765C72.033 19.3596 72.772 20.1705 73.4708 21.0032L65.0513 29.4061C56.4752 37.9656 56.4752 51.8604 65.0513 60.4199L73.4708 68.8228C72.772 69.6555 72.033 70.4664 71.2499 71.2495ZM49.5609 49.5606C52.1274 46.9938 52.1274 42.8322 49.5609 40.2654C46.9942 37.6987 42.8326 37.6989 40.2658 40.2654C37.6989 42.8323 37.6982 46.9944 40.2651 49.5613C42.8319 52.1279 46.9942 52.1273 49.5609 49.5606Z" fill="white"/>
<path d="M16.3557 21.0037C4.77413 34.8045 4.77413 55.0216 16.3557 68.8224L10.9152 74.2628C-3.63788 57.4406 -3.63867 32.3847 10.9145 15.5625L16.3557 21.0037Z" fill="white"/>
<path d="M74.2632 78.9112C57.441 93.4644 32.3851 93.4636 15.5629 78.9105L21.0035 73.4704C34.8043 85.0519 55.0212 85.0516 68.822 73.47L74.2632 78.9112Z" fill="white"/>
<path d="M68.8227 16.3553C55.022 4.77372 34.8043 4.77404 21.0035 16.3556L15.5621 10.9149C32.3843 -3.63829 57.441 -3.63829 74.2632 10.9149L68.8227 16.3553Z" fill="white"/>
<path d="M78.9108 15.5625C93.464 32.3847 93.464 57.4414 78.9108 74.2636L73.4696 68.8224C85.0512 55.0216 85.0523 34.8039 73.4708 21.0032L78.9108 15.5625Z" fill="white"/>
</svg>
